<svg width="81" height="24" viewBox="0 0 81 24" fill="none" xmlns="http://www.w3.org/2000/svg">
<path d="M36.7699 7.27273V16H34.6605V7.27273H36.7699ZM45.944 10.4347H43.8133C43.7849 10.2159 43.7267 10.0185 43.6386 9.84233C43.5505 9.66619 43.434 9.51562 43.2892 9.39062C43.1443 9.26562 42.9724 9.17045 42.7735 9.10511C42.5775 9.03693 42.3602 9.00284 42.1215 9.00284C41.6982 9.00284 41.3332 9.10653 41.0264 9.31392C40.7224 9.52131 40.488 9.82102 40.3232 10.2131C40.1613 10.6051 40.0803 11.0795 40.0803 11.6364C40.0803 12.2159 40.1627 12.7017 40.3275 13.0938C40.4951 13.483 40.7295 13.777 41.0306 13.9759C41.3346 14.1719 41.694 14.2699 42.1088 14.2699C42.3417 14.2699 42.5534 14.2401 42.7437 14.1804C42.9369 14.1207 43.1059 14.0341 43.2508 13.9205C43.3985 13.804 43.5193 13.6634 43.613 13.4986C43.7096 13.331 43.7764 13.142 43.8133 12.9318L45.944 12.9446C45.907 13.331 45.7948 13.7116 45.6073 14.0866C45.4227 14.4616 45.1684 14.804 44.8445 15.1136C44.5207 15.4205 44.1258 15.6648 43.6599 15.8466C43.1968 16.0284 42.6656 16.1193 42.0661 16.1193C41.2764 16.1193 40.569 15.946 39.944 15.5994C39.3218 15.25 38.8303 14.7415 38.4695 14.0739C38.1088 13.4062 37.9284 12.5937 37.9284 11.6364C37.9284 10.6761 38.1116 9.86222 38.4781 9.1946C38.8445 8.52699 39.3403 8.01989 39.9653 7.6733C40.5903 7.3267 41.2906 7.15341 42.0661 7.15341C42.5945 7.15341 43.0832 7.22727 43.532 7.375C43.9809 7.51989 44.3758 7.73295 44.7167 8.0142C45.0576 8.29261 45.3346 8.63494 45.5477 9.04119C45.7607 9.44744 45.8928 9.91193 45.944 10.4347ZM55.3162 11.6364C55.3162 12.5966 55.1316 13.4105 54.7622 14.0781C54.3929 14.7457 53.8929 15.2528 53.2622 15.5994C52.6344 15.946 51.9299 16.1193 51.1486 16.1193C50.3645 16.1193 49.6586 15.9446 49.0307 15.5952C48.4029 15.2457 47.9043 14.7386 47.535 14.0739C47.1685 13.4062 46.9853 12.5937 46.9853 11.6364C46.9853 10.6761 47.1685 9.86222 47.535 9.1946C47.9043 8.52699 48.4029 8.01989 49.0307 7.6733C49.6586 7.3267 50.3645 7.15341 51.1486 7.15341C51.9299 7.15341 52.6344 7.3267 53.2622 7.6733C53.8929 8.01989 54.3929 8.52699 54.7622 9.1946C55.1316 9.86222 55.3162 10.6761 55.3162 11.6364ZM53.16 11.6364C53.16 11.0682 53.079 10.5881 52.9171 10.196C52.758 9.80398 52.5279 9.5071 52.2267 9.3054C51.9284 9.10369 51.5691 9.00284 51.1486 9.00284C50.731 9.00284 50.3716 9.10369 50.0705 9.3054C49.7694 9.5071 49.5378 9.80398 49.3759 10.196C49.2168 10.5881 49.1372 11.0682 49.1372 11.6364C49.1372 12.2045 49.2168 12.6847 49.3759 13.0767C49.5378 13.4687 49.7694 13.7656 50.0705 13.9673C50.3716 14.169 50.731 14.2699 51.1486 14.2699C51.5691 14.2699 51.9284 14.169 52.2267 13.9673C52.5279 13.7656 52.758 13.4687 52.9171 13.0767C53.079 12.6847 53.16 12.2045 53.16 11.6364ZM63.9033 7.27273V16H62.1135L58.6405 10.9631H58.5851V16H56.4758V7.27273H58.2911L61.7258 12.3011H61.7982V7.27273H63.9033ZM69.875 9.8892C69.8466 9.5767 69.7202 9.33381 69.4957 9.16051C69.2741 8.98438 68.9574 8.89631 68.5455 8.89631C68.2727 8.89631 68.0455 8.93182 67.8636 9.00284C67.6818 9.07386 67.5455 9.17188 67.4545 9.29688C67.3636 9.41903 67.3168 9.55966 67.3139 9.71875C67.3082 9.84943 67.3338 9.96449 67.3906 10.0639C67.4503 10.1634 67.5355 10.2514 67.6463 10.3281C67.7599 10.402 67.8963 10.4673 68.0554 10.5241C68.2145 10.581 68.3935 10.6307 68.5923 10.6733L69.3423 10.8438C69.7741 10.9375 70.1548 11.0625 70.4844 11.2188C70.8168 11.375 71.0952 11.5611 71.3196 11.777C71.5469 11.9929 71.7187 12.2415 71.8352 12.5227C71.9517 12.804 72.0114 13.1193 72.0142 13.4688C72.0114 14.0199 71.8722 14.4929 71.5966 14.8878C71.321 15.2827 70.9247 15.5852 70.4077 15.7955C69.8935 16.0057 69.2727 16.1108 68.5455 16.1108C67.8153 16.1108 67.179 16.0014 66.6364 15.7827C66.0937 15.5639 65.6719 15.2315 65.3707 14.7855C65.0696 14.3395 64.9148 13.7756 64.9062 13.0938H66.9261C66.9432 13.375 67.0185 13.6094 67.152 13.7969C67.2855 13.9844 67.4687 14.1264 67.7017 14.223C67.9375 14.3196 68.2102 14.3679 68.5199 14.3679C68.804 14.3679 69.0455 14.3295 69.2443 14.2528C69.446 14.1761 69.6008 14.0696 69.7088 13.9332C69.8168 13.7969 69.8722 13.6406 69.875 13.4645C69.8722 13.2997 69.821 13.1591 69.7216 13.0426C69.6222 12.9233 69.4687 12.821 69.2614 12.7358C69.0568 12.6477 68.7955 12.5668 68.4773 12.4929L67.5653 12.2798C66.8097 12.1065 66.2145 11.8267 65.7798 11.4403C65.3452 11.0511 65.1293 10.5256 65.1321 9.86364C65.1293 9.32386 65.2741 8.85085 65.5668 8.4446C65.8594 8.03835 66.2642 7.72159 66.7812 7.49432C67.2983 7.26705 67.8878 7.15341 68.5497 7.15341C69.2258 7.15341 69.8125 7.26847 70.3097 7.49858C70.8097 7.72585 71.1974 8.04545 71.473 8.45739C71.7486 8.86932 71.8892 9.34659 71.8949 9.8892H69.875ZM76.3996 16.1193C75.7206 16.1193 75.1141 16.0114 74.58 15.7955C74.0487 15.5767 73.6311 15.2812 73.3271 14.9091C73.026 14.5341 72.8754 14.1108 72.8754 13.6392C72.8754 13.2784 72.9621 12.9474 73.1354 12.6463C73.3087 12.3452 73.5431 12.0952 73.8385 11.8963C74.1368 11.6946 74.4692 11.5653 74.8357 11.5085V11.4403C74.3556 11.3523 73.9621 11.1293 73.6553 10.7713C73.3513 10.4134 73.1993 9.99432 73.1993 9.5142C73.1993 9.05966 73.3371 8.65483 73.6127 8.29972C73.8911 7.9446 74.2703 7.66477 74.7504 7.46023C75.2334 7.25568 75.7831 7.15341 76.3996 7.15341C77.0161 7.15341 77.5644 7.25568 78.0445 7.46023C78.5274 7.66477 78.9067 7.9446 79.1823 8.29972C79.4607 8.65483 79.5999 9.05966 79.5999 9.5142C79.5999 9.99716 79.445 10.4176 79.1354 10.7756C78.8286 11.1307 78.4379 11.3523 77.9635 11.4403V11.5085C78.3271 11.5653 78.6567 11.6946 78.9521 11.8963C79.2504 12.0952 79.4862 12.3452 79.6595 12.6463C79.8357 12.9474 79.9237 13.2784 79.9237 13.6392C79.9237 14.1108 79.7717 14.5341 79.4678 14.9091C79.1638 15.2812 78.7462 15.5767 78.2149 15.7955C77.6865 16.0114 77.0814 16.1193 76.3996 16.1193ZM76.3996 14.6236C76.6581 14.6236 76.8854 14.5753 77.0814 14.4787C77.2774 14.3793 77.4308 14.2415 77.5416 14.0653C77.6553 13.8892 77.7121 13.6903 77.7121 13.4688C77.7121 13.2415 77.6553 13.0398 77.5416 12.8636C77.428 12.6875 77.2717 12.5497 77.0729 12.4503C76.8769 12.348 76.6524 12.2969 76.3996 12.2969C76.1496 12.2969 75.9252 12.348 75.7263 12.4503C75.5274 12.5497 75.3712 12.6875 75.2575 12.8636C75.1439 13.0398 75.0871 13.2415 75.0871 13.4688C75.0871 13.6903 75.1425 13.8892 75.2533 14.0653C75.3669 14.2386 75.5217 14.375 75.7178 14.4744C75.9166 14.5739 76.1439 14.6236 76.3996 14.6236ZM76.3996 10.8097C76.6212 10.8097 76.8172 10.7642 76.9877 10.6733C77.161 10.5824 77.2959 10.456 77.3925 10.294C77.4919 10.1321 77.5416 9.94886 77.5416 9.74432C77.5416 9.53977 77.4919 9.35938 77.3925 9.20312C77.2959 9.04688 77.1624 8.92472 76.9919 8.83665C76.8215 8.74574 76.624 8.70028 76.3996 8.70028C76.178 8.70028 75.9806 8.74574 75.8073 8.83665C75.634 8.92472 75.499 9.04688 75.4024 9.20312C75.3058 9.35938 75.2575 9.53977 75.2575 9.74432C75.2575 9.94886 75.3058 10.1321 75.4024 10.294C75.5019 10.4531 75.6382 10.5795 75.8115 10.6733C75.9848 10.7642 76.1808 10.8097 76.3996 10.8097Z" fill="#1A1A1A"/>
<g clip-path="url(#clip0_307_435)">
<path d="M12 0H0V24H12V0Z" fill="#1FB141"/>
<path d="M18 12C21.3137 12 24 9.31371 24 6C24 2.68629 21.3137 0 18 0C14.6863 0 12 2.68629 12 6C12 9.31371 14.6863 12 18 12Z" fill="#1FB141"/>
<path d="M18 24C21.3137 24 24 21.3137 24 18C24 14.6863 21.3137 12 18 12C14.6863 12 12 14.6863 12 18C12 21.3137 14.6863 24 18 24Z" fill="#1FB141"/>
</g>
<defs>
<clipPath id="clip0_307_435">
<rect width="24" height="24" fill="white"/>
</clipPath>
</defs>
</svg>
